<mxfile host="app.diagrams.net" modified="2022-03-04T12:13:50.460Z" agent="5.0 (Windows NT 10.0; Win64; x64) AppleWebKit/537.36 (KHTML, like Gecko) Chrome/98.0.4758.102 Safari/537.36 Edg/98.0.1108.62" etag="IXTLQySzZMf3_tP1SPe1" version="16.6.6" type="github">
  <diagram id="-xiKRd-Bos9wqLAC9QQs" name="Page-1">
    <mxGraphModel dx="1022" dy="446" grid="1" gridSize="10" guides="1" tooltips="1" connect="1" arrows="1" fold="1" page="1" pageScale="1" pageWidth="850" pageHeight="1100" math="0" shadow="0">
      <root>
        <mxCell id="0" />
        <mxCell id="1" parent="0" />
        <mxCell id="721xxDG18nXBm--lyNz6-4" value="" style="edgeStyle=orthogonalEdgeStyle;rounded=0;orthogonalLoop=1;jettySize=auto;html=1;" parent="1" source="721xxDG18nXBm--lyNz6-1" target="721xxDG18nXBm--lyNz6-3" edge="1">
          <mxGeometry relative="1" as="geometry" />
        </mxCell>
        <mxCell id="721xxDG18nXBm--lyNz6-1" value="Device Data generated and transmitted over HTTP/HTTPS/TCP&lt;br&gt;(Server)" style="rounded=1;whiteSpace=wrap;html=1;" parent="1" vertex="1">
          <mxGeometry x="40" y="170" width="190" height="80" as="geometry" />
        </mxCell>
        <mxCell id="721xxDG18nXBm--lyNz6-2" value="Actual device/Raspberrypi/MockDevice" style="text;html=1;align=center;verticalAlign=middle;resizable=0;points=[];autosize=1;strokeColor=none;fillColor=none;" parent="1" vertex="1">
          <mxGeometry x="20" y="250" width="220" height="20" as="geometry" />
        </mxCell>
        <mxCell id="721xxDG18nXBm--lyNz6-7" value="" style="edgeStyle=orthogonalEdgeStyle;rounded=0;orthogonalLoop=1;jettySize=auto;html=1;" parent="1" source="721xxDG18nXBm--lyNz6-3" target="721xxDG18nXBm--lyNz6-6" edge="1">
          <mxGeometry relative="1" as="geometry" />
        </mxCell>
        <mxCell id="721xxDG18nXBm--lyNz6-3" value="IIOT Box/Host Device&amp;nbsp;&lt;br&gt;Read data using Edgelink studio/Docker app and pushing to Azure&lt;br&gt;(Client)" style="rounded=1;whiteSpace=wrap;html=1;" parent="1" vertex="1">
          <mxGeometry x="400" y="170" width="190" height="80" as="geometry" />
        </mxCell>
        <mxCell id="721xxDG18nXBm--lyNz6-5" value="Over HTTP/HTTPS/TCP" style="text;html=1;align=center;verticalAlign=middle;resizable=0;points=[];autosize=1;strokeColor=none;fillColor=none;" parent="1" vertex="1">
          <mxGeometry x="240" y="180" width="150" height="20" as="geometry" />
        </mxCell>
        <mxCell id="721xxDG18nXBm--lyNz6-6" value="Azure Storage" style="ellipse;whiteSpace=wrap;html=1;rounded=1;" parent="1" vertex="1">
          <mxGeometry x="435" y="20" width="120" height="60" as="geometry" />
        </mxCell>
        <mxCell id="721xxDG18nXBm--lyNz6-8" value="Acquired Parameter send&lt;br&gt;Over HTTP/HTTPS/TCP" style="text;html=1;align=center;verticalAlign=middle;resizable=0;points=[];autosize=1;strokeColor=none;fillColor=none;" parent="1" vertex="1">
          <mxGeometry x="490" y="115" width="150" height="30" as="geometry" />
        </mxCell>
        <mxCell id="721xxDG18nXBm--lyNz6-9" value="Advantech IIOT Box/Host machine" style="text;html=1;align=center;verticalAlign=middle;resizable=0;points=[];autosize=1;strokeColor=none;fillColor=none;" parent="1" vertex="1">
          <mxGeometry x="390" y="250" width="200" height="20" as="geometry" />
        </mxCell>
      </root>
    </mxGraphModel>
  </diagram>
</mxfile>
